<svg width="18" height="18" viewBox="0 0 18 18" fill="none" xmlns="http://www.w3.org/2000/svg">
<path fill-rule="evenodd" clip-rule="evenodd" d="M0.899987 9.9H1.79999V11.7V16.2C1.79999 17.1927 2.60729 18 3.59999 18H6.29999H11.7H14.4C15.3927 18 16.2 17.1927 16.2 16.2V11.7V9.9H17.1C17.4636 9.9 17.793 9.6804 17.9316 9.3447C18.0711 9.0081 17.9937 8.6211 17.7363 8.3637L9.63629 0.263704C9.28439 -0.0881963 8.71559 -0.0881963 8.36369 0.263704L0.263687 8.3637C0.00628722 8.6211 -0.0711128 9.0081 0.0683872 9.3447C0.206987 9.6804 0.536387 9.9 0.899987 9.9ZM7.19999 16.2V11.7H10.8V16.2H7.19999ZM8.99999 2.1726L14.4 7.5726V11.7L14.4009 16.2H12.6V11.7C12.6 10.7073 11.7927 9.9 10.8 9.9H7.19999C6.20729 9.9 5.39999 10.7073 5.39999 11.7V16.2H3.59999V11.7V9V7.5726L8.99999 2.1726Z" fill="#696CFF"/>
</svg>
