<svg width="29" height="41" viewBox="0 0 29 41" fill="none" xmlns="http://www.w3.org/2000/svg">
<path fill-rule="evenodd" clip-rule="evenodd" d="M13.7919 8.35837L3.39789 15.4417C3.39789 15.4417 -0.848634 18.8203 0.55791 23.7961C0.689998 24.2305 1.09564 25.7872 3.12358 27.2293C4.16017 27.9665 7.65076 29.2173 7.65076 29.2173L7.59774 29.2525L2.6347 32.5493C2.6347 32.5493 -0.649156 35.1756 1.56383 39.1739C2.83771 40.817 5.20851 41.264 7.09181 40.5392C8.97511 39.8143 16.4176 34.3747 16.4176 34.3747C16.4176 34.3747 18.842 31.5623 18.408 28.2388C17.7416 24.1826 13.0497 22.3748 13.0497 22.3748L10.9195 21.4716L18.6192 15.9842L13.7919 8.35837Z" fill="#696CFF"/>
<mask id="mask0_0_283" style="mask-type:luminance" maskUnits="userSpaceOnUse" x="0" y="8" width="19" height="33">
<path fill-rule="evenodd" clip-rule="evenodd" d="M13.7919 8.35837L3.39789 15.4417C3.39789 15.4417 -0.848634 18.8203 0.55791 23.7961C0.689998 24.2305 1.09564 25.7872 3.12358 27.2293C4.16017 27.9665 7.65076 29.2173 7.65076 29.2173L7.59774 29.2525L2.6347 32.5493C2.6347 32.5493 -0.649156 35.1756 1.56383 39.1739C2.83771 40.817 5.20851 41.264 7.09181 40.5392C8.97511 39.8143 16.4176 34.3747 16.4176 34.3747C16.4176 34.3747 18.842 31.5623 18.408 28.2388C17.7416 24.1826 13.0497 22.3748 13.0497 22.3748L10.9195 21.4716L18.6192 15.9842L13.7919 8.35837Z" fill="white"/>
</mask>
<g mask="url(#mask0_0_283)">
<path fill-rule="evenodd" clip-rule="evenodd" d="M5.47321 14.0046C5.47321 14.0046 3.34323 17.3219 6.4036 19.573C9.72102 21.071 10.8577 21.5094 10.8577 21.5094L15.5088 22.433L18.6192 15.9842C18.6192 15.9842 13.995 8.68091 13.7919 8.35837C13.4727 8.58806 5.47321 14.0046 5.47321 14.0046Z" fill="#696CFF"/>
<path fill-rule="evenodd" clip-rule="evenodd" d="M5.47321 14.0046C5.47321 14.0046 3.34323 17.3219 6.4036 19.573C9.72102 21.071 10.8577 21.5094 10.8577 21.5094L15.5088 22.433L18.6192 15.9842C18.6192 15.9842 13.995 8.68091 13.7919 8.35837C13.4727 8.58806 5.47321 14.0046 5.47321 14.0046Z" fill="white" fill-opacity="0.2"/>
<path fill-rule="evenodd" clip-rule="evenodd" d="M7.50064 29.2294L12.3234 31.3159C12.3234 31.3159 15.0915 33.479 13.0083 36.5062C10.9252 39.5333 9.07959 40.3041 9.07959 40.3041L4.13235 42L-2.98023e-07 39.1615C-2.98023e-07 39.1615 -0.837341 34.1472 -2.98023e-07 33.8774C0.83734 33.6075 2.77988 30.8249 3.30494 30.5299C3.82999 30.2349 7.50064 29.2294 7.50064 29.2294Z" fill="#696CFF"/>
<path fill-rule="evenodd" clip-rule="evenodd" d="M7.50064 29.2294L12.3234 31.3159C12.3234 31.3159 15.0915 33.479 13.0083 36.5062C10.9252 39.5333 9.07959 40.3041 9.07959 40.3041L4.13235 42L-2.98023e-07 39.1615C-2.98023e-07 39.1615 -0.837341 34.1472 -2.98023e-07 33.8774C0.83734 33.6075 2.77988 30.8249 3.30494 30.5299C3.82999 30.2349 7.50064 29.2294 7.50064 29.2294Z" fill="white" fill-opacity="0.2"/>
</g>
<path fill-rule="evenodd" clip-rule="evenodd" d="M21.5486 7.68102C22.8724 7.84051 23.6724 9.22615 23.1486 10.4523L19.8751 18.1158C19.2277 19.6314 17.1279 19.7574 16.3039 18.3301L11.3039 9.66987C10.4798 8.24258 11.6389 6.48709 13.2751 6.68423L21.5486 7.68102Z" fill="#696CFF"/>
<path fill-rule="evenodd" clip-rule="evenodd" d="M21.5486 7.68102C22.8724 7.84051 23.6724 9.22615 23.1486 10.4523L19.8751 18.1158C19.2277 19.6314 17.1279 19.7574 16.3039 18.3301L11.3039 9.66987C10.4798 8.24258 11.6389 6.48709 13.2751 6.68423L21.5486 7.68102Z" fill="white" fill-opacity="0.2"/>
</svg>
